<?xml version="1.0" standalone="no"?>
<!DOCTYPE svg PUBLIC "-//W3C//DTD SVG 20010904//EN"
 "http://www.w3.org/TR/2001/REC-SVG-20010904/DTD/svg10.dtd">
<svg version="1.0" xmlns="http://www.w3.org/2000/svg"
 width="900.000000pt" height="900.000000pt" viewBox="0 0 900.000000 900.000000"
 preserveAspectRatio="xMidYMid meet">
<metadata>
Created by potrace 1.10, written by Peter Selinger 2001-2011
</metadata>
<g transform="translate(0.000000,900.000000) scale(0.100000,-0.100000)"
fill="#ffffff" stroke="none">
<path d="M4065 8423 c-64 -2 -105 -9 -115 -17 -8 -8 -52 -17 -100 -21 -79 -6
-124 -15 -175 -36 -11 -4 -47 -11 -80 -14 -33 -4 -65 -11 -71 -16 -6 -5 -31
-13 -55 -18 -62 -14 -130 -32 -154 -42 -11 -4 -36 -12 -55 -18 -72 -19 -259
-91 -285 -108 -11 -7 -25 -13 -32 -13 -11 0 -96 -40 -203 -95 -25 -12 -65 -33
-90 -45 -25 -12 -58 -30 -75 -40 -16 -10 -50 -29 -75 -42 -25 -12 -73 -42
-107 -65 -35 -24 -67 -43 -71 -43 -5 0 -22 -12 -37 -26 -16 -15 -51 -42 -79
-62 -138 -96 -184 -132 -241 -184 -34 -32 -65 -58 -70 -58 -10 0 -375 -365
-375 -375 0 -5 -26 -36 -57 -70 -32 -34 -85 -99 -118 -145 -33 -47 -68 -91
-77 -99 -10 -9 -18 -21 -18 -28 0 -6 -6 -18 -12 -25 -23 -23 -133 -192 -156
-238 -13 -25 -32 -58 -42 -75 -10 -16 -28 -49 -39 -72 -12 -24 -30 -62 -42
-85 -11 -24 -30 -61 -42 -83 -13 -22 -33 -65 -45 -95 -13 -30 -27 -64 -32 -75
-23 -50 -70 -171 -70 -182 0 -11 -10 -38 -45 -118 -8 -16 -16 -43 -19 -60 -11
-65 -32 -141 -41 -155 -6 -8 -15 -44 -22 -80 -7 -36 -17 -87 -23 -115 -6 -27
-17 -88 -23 -135 -7 -47 -17 -92 -22 -100 -22 -33 -55 -720 -37 -743 5 -7 13
-93 17 -192 4 -99 11 -186 17 -192 6 -7 16 -59 24 -115 7 -57 17 -125 23 -153
5 -27 15 -77 22 -110 6 -33 16 -65 21 -72 5 -6 13 -40 19 -75 6 -34 14 -67 20
-72 5 -6 9 -20 9 -33 0 -13 4 -31 10 -41 11 -19 35 -84 54 -147 18 -59 53
-141 102 -238 8 -16 14 -35 14 -42 0 -18 138 -286 180 -350 11 -16 31 -51 43
-77 13 -25 44 -75 70 -110 65 -89 111 -154 154 -218 20 -30 44 -62 52 -72 9
-9 45 -51 81 -94 107 -127 267 -290 395 -400 66 -57 134 -117 150 -132 17 -15
50 -43 75 -62 25 -19 48 -38 51 -43 7 -9 41 -30 75 -46 12 -5 23 -13 25 -18 6
-12 124 -92 154 -103 14 -5 25 -14 25 -20 0 -5 5 -10 10 -10 6 0 29 -12 53
-27 58 -38 109 -63 124 -63 8 0 16 -6 19 -14 3 -7 24 -21 47 -31 68 -28 171
-75 187 -85 37 -23 142 -70 156 -70 14 0 101 -36 146 -61 10 -5 27 -9 38 -9
11 0 28 -4 38 -9 27 -15 170 -61 189 -61 18 0 78 -17 103 -30 9 -4 44 -11 77
-15 34 -4 67 -13 74 -21 7 -9 31 -14 63 -14 28 0 69 -5 91 -11 43 -12 119 -22
285 -38 129 -12 684 -13 800 0 186 19 376 50 405 66 11 6 47 14 80 18 33 4 65
11 70 15 6 4 26 10 45 13 53 8 142 32 167 45 12 7 32 12 45 12 13 0 32 7 42
15 11 8 30 15 42 15 13 0 25 4 28 9 3 5 22 12 41 15 19 4 65 20 101 36 36 17
70 30 75 30 5 0 27 11 49 25 22 14 45 25 51 25 16 0 226 103 269 132 19 13 56
34 83 47 26 12 47 27 47 32 0 5 5 9 10 9 6 0 29 12 53 27 59 38 80 51 97 59 8
4 28 20 44 36 17 15 34 28 39 28 12 0 102 69 171 133 29 26 56 47 60 47 12 0
92 69 181 156 45 45 90 84 99 87 9 4 19 14 23 24 4 9 36 47 72 84 95 98 171
184 171 194 0 4 21 32 48 61 67 75 102 120 102 132 0 5 7 12 15 16 8 3 15 12
15 19 0 8 13 27 30 43 16 16 30 33 30 38 0 6 20 40 45 77 25 37 45 72 45 78 0
6 4 11 9 11 5 0 21 24 35 54 14 30 31 58 36 61 6 3 10 13 10 21 0 8 14 33 30
56 16 22 30 51 30 63 0 13 7 28 15 35 8 7 15 18 15 25 0 10 27 66 77 160 17
30 71 167 78 195 3 14 10 34 14 45 14 36 33 89 41 120 5 17 15 48 24 70 8 22
15 54 16 72 0 17 4 34 9 37 5 3 11 23 14 43 7 50 33 160 45 198 14 40 31 141
42 245 5 47 14 130 20 185 15 131 8 811 -9 828 -6 6 -11 35 -11 65 0 29 -4 61
-10 71 -5 10 -12 56 -16 102 -3 46 -12 99 -21 117 -8 18 -19 56 -24 85 -25
131 -53 243 -66 259 -6 7 -13 27 -16 43 -8 41 -55 181 -78 231 -10 23 -19 46
-19 52 0 6 -11 31 -25 56 -14 25 -25 54 -25 64 0 11 -7 25 -15 32 -8 7 -15 16
-15 21 0 12 -60 139 -75 159 -6 8 -20 35 -31 60 -10 25 -38 73 -61 108 -24 34
-43 64 -43 67 0 3 -13 24 -30 47 -16 22 -30 47 -30 54 0 7 -20 36 -45 64 -25
28 -45 57 -45 64 0 14 -45 74 -95 128 -14 15 -25 32 -25 38 0 7 -22 35 -49 63
-27 29 -87 93 -135 143 -47 50 -86 95 -86 100 0 12 -134 144 -145 144 -5 0
-38 28 -75 63 -79 74 -110 101 -169 147 -25 19 -55 44 -67 55 -41 38 -122 95
-134 95 -6 0 -35 20 -63 45 -29 25 -59 45 -69 45 -9 0 -21 6 -25 13 -8 13 -59
43 -182 108 -30 16 -61 35 -70 42 -9 7 -36 22 -61 32 -47 19 -114 50 -140 64
-25 14 -79 37 -200 86 -63 25 -128 52 -143 60 -16 8 -41 15 -57 15 -15 0 -33
6 -39 14 -7 8 -28 16 -49 19 -59 9 -164 34 -207 51 -22 8 -54 15 -72 16 -17 0
-35 5 -38 10 -3 6 -25 10 -49 10 -23 0 -46 4 -51 9 -6 6 -46 13 -90 17 -44 3
-93 13 -110 21 -25 13 -100 16 -465 18 -239 1 -480 0 -535 -2z m781 -232 c9
-9 35 -13 211 -30 57 -6 115 -17 130 -24 16 -8 62 -17 104 -20 42 -3 85 -10
95 -15 26 -13 101 -33 149 -39 35 -4 96 -26 147 -54 10 -5 29 -9 42 -9 14 0
27 -4 30 -9 3 -5 20 -12 38 -15 18 -3 60 -20 93 -36 33 -16 66 -30 73 -30 7 0
37 -13 67 -30 30 -16 63 -30 73 -30 11 0 25 -7 32 -15 7 -8 18 -15 24 -15 16
0 72 -29 121 -63 22 -15 45 -27 51 -27 6 0 28 -13 50 -30 21 -16 43 -30 48
-30 12 0 113 -68 121 -80 3 -6 13 -10 20 -10 15 0 96 -53 127 -82 10 -10 22
-18 26 -18 5 0 21 -12 38 -28 34 -32 94 -77 111 -83 16 -6 160 -138 262 -241
176 -177 421 -466 421 -496 0 -5 7 -15 15 -22 15 -12 75 -97 75 -105 0 -2 20
-33 45 -69 25 -37 45 -69 45 -72 0 -3 14 -26 30 -51 17 -24 30 -46 30 -48 0
-6 68 -146 80 -165 5 -8 26 -50 46 -92 19 -43 40 -80 45 -83 5 -4 9 -17 9 -30
0 -13 7 -41 16 -62 30 -68 33 -77 59 -158 15 -44 30 -88 36 -97 5 -10 9 -28 9
-40 0 -21 12 -64 42 -153 16 -49 39 -156 45 -210 3 -27 9 -55 13 -60 5 -6 12
-58 15 -115 4 -58 14 -120 22 -138 20 -46 22 -756 2 -793 -7 -13 -19 -76 -25
-139 -7 -63 -17 -137 -23 -165 -5 -27 -14 -74 -20 -103 -5 -29 -17 -67 -25
-84 -9 -17 -16 -47 -16 -67 -1 -20 -7 -47 -15 -61 -8 -14 -14 -39 -15 -55 0
-17 -6 -39 -14 -50 -7 -11 -16 -33 -19 -50 -8 -43 -36 -124 -58 -168 -10 -22
-19 -44 -19 -50 0 -7 -16 -43 -35 -80 -19 -38 -35 -73 -35 -80 0 -9 -52 -120
-79 -167 -5 -8 -17 -32 -27 -52 -10 -21 -21 -38 -24 -38 -3 0 -16 -24 -30 -52
-13 -29 -37 -71 -53 -93 -61 -88 -117 -174 -117 -182 0 -4 -27 -41 -60 -82
-33 -41 -60 -78 -60 -83 0 -5 -20 -28 -45 -51 -25 -24 -45 -48 -45 -54 0 -11
-438 -453 -449 -453 -3 0 -28 -20 -54 -45 -27 -25 -52 -45 -57 -45 -4 0 -13
-7 -21 -16 -13 -16 -97 -75 -156 -110 -19 -11 -39 -28 -45 -37 -5 -9 -16 -17
-24 -17 -8 0 -43 -19 -77 -43 -34 -23 -86 -54 -114 -67 -29 -14 -53 -27 -53
-30 0 -3 -17 -14 -37 -24 -21 -10 -45 -22 -53 -27 -55 -31 -159 -79 -172 -79
-8 0 -21 -7 -28 -15 -7 -8 -19 -15 -26 -15 -8 0 -31 -9 -51 -20 -21 -11 -43
-20 -49 -20 -7 0 -29 -9 -51 -19 -36 -18 -100 -41 -168 -61 -43 -12 -97 -31
-118 -42 -10 -5 -42 -12 -70 -15 -29 -3 -62 -12 -74 -19 -12 -8 -30 -14 -39
-14 -21 0 -153 -30 -179 -40 -11 -5 -66 -12 -123 -15 -61 -4 -115 -13 -134
-23 -28 -13 -86 -16 -428 -16 -347 0 -398 1 -420 16 -17 10 -60 18 -129 22
-58 4 -112 11 -122 17 -10 5 -37 9 -61 9 -24 0 -48 4 -54 10 -5 5 -36 12 -69
16 -33 4 -67 12 -75 19 -8 7 -38 15 -65 19 -28 3 -75 16 -105 27 -30 12 -68
24 -85 27 -16 2 -39 11 -50 18 -11 8 -29 14 -41 14 -12 0 -27 7 -34 15 -7 8
-25 15 -40 15 -15 0 -33 7 -40 15 -7 8 -25 15 -41 15 -15 0 -30 4 -33 9 -6 9
-30 21 -138 69 -25 12 -49 26 -53 32 -3 5 -17 10 -29 10 -13 0 -34 8 -47 19
-24 18 -43 29 -156 85 -32 16 -62 34 -68 41 -16 18 -83 65 -93 65 -4 0 -35 20
-68 45 -32 24 -64 45 -70 45 -6 0 -27 15 -46 33 -19 17 -59 50 -87 72 -113 86
-179 146 -325 291 -154 155 -266 276 -266 289 0 11 -102 135 -112 135 -4 0 -8
6 -8 14 0 8 -6 21 -13 28 -7 7 -20 24 -29 38 -10 14 -38 54 -63 90 -25 36 -45
71 -45 78 0 7 -7 15 -15 18 -8 4 -15 12 -15 19 0 6 -13 31 -30 53 -16 23 -30
48 -30 56 0 8 -4 17 -10 21 -5 3 -25 40 -45 83 -20 42 -40 84 -45 92 -21 35
-51 100 -75 165 -15 39 -38 93 -51 121 -13 28 -24 58 -24 66 0 8 -9 33 -20 56
-11 22 -20 49 -20 59 0 11 -9 36 -20 58 -11 22 -20 46 -20 53 0 23 -31 156
-41 175 -5 9 -12 45 -16 80 -3 34 -10 68 -16 74 -8 12 -18 68 -49 303 -14 105
-21 710 -9 735 6 11 12 54 15 95 7 118 33 291 45 303 6 6 11 29 11 51 0 23 5
59 11 81 6 22 13 51 15 65 3 14 10 34 15 45 5 11 13 40 18 65 9 41 31 113 50
165 18 47 33 92 40 120 5 17 20 55 34 85 14 30 33 75 43 100 10 25 23 52 30
60 7 8 16 29 20 45 4 17 17 46 28 65 39 65 45 75 81 148 19 40 35 76 35 81 0
4 12 18 26 32 14 13 37 47 50 75 13 28 34 62 47 76 26 30 44 56 56 83 5 11 21
31 35 44 14 14 26 30 26 36 0 6 20 31 45 55 25 24 45 48 45 52 0 5 19 27 43
51 24 23 59 62 78 87 41 54 338 350 351 350 5 0 24 16 44 35 19 19 38 35 42
35 4 0 28 20 52 45 24 25 49 45 55 45 6 0 22 12 36 26 13 14 33 30 44 35 32
14 59 33 68 47 4 6 14 12 22 12 7 0 20 6 27 13 7 7 38 28 68 47 30 19 59 40
63 47 4 7 12 13 17 13 8 0 76 32 198 94 20 10 44 24 52 31 8 7 29 16 47 20 17
3 37 13 44 21 6 8 24 14 40 14 15 0 30 4 33 9 8 13 89 51 107 51 8 0 19 4 24
8 6 5 30 14 55 21 25 7 62 21 83 31 20 10 56 21 80 25 23 4 47 11 52 15 6 4
33 13 60 20 28 7 54 17 59 21 6 5 28 9 51 9 23 0 46 5 51 10 6 6 42 13 80 16
38 4 79 13 91 20 13 8 71 19 130 25 60 6 140 13 180 17 39 4 75 10 79 15 11
10 618 9 630 -2z"/>
<path d="M4345 8046 c-14 -9 -71 -15 -184 -19 -90 -4 -169 -11 -175 -16 -6 -5
-33 -11 -61 -14 -97 -11 -190 -27 -216 -38 -28 -11 -132 -37 -189 -46 -19 -3
-44 -12 -55 -19 -11 -8 -31 -14 -45 -14 -14 0 -35 -6 -46 -14 -11 -8 -38 -18
-60 -22 -21 -4 -53 -15 -70 -24 -17 -10 -44 -21 -61 -24 -18 -4 -37 -14 -44
-22 -6 -8 -23 -14 -38 -14 -15 0 -32 -5 -38 -11 -6 -6 -46 -27 -89 -48 -44
-20 -86 -41 -94 -46 -8 -5 -46 -24 -83 -42 -38 -18 -75 -40 -83 -48 -9 -8 -21
-15 -27 -15 -7 0 -30 -14 -51 -30 -22 -17 -45 -30 -52 -30 -7 0 -27 -12 -45
-27 -18 -16 -56 -44 -85 -63 -56 -37 -150 -111 -219 -172 -23 -21 -46 -38 -51
-38 -14 0 -412 -408 -469 -481 -78 -100 -195 -264 -195 -275 0 -2 -20 -32 -44
-67 -24 -34 -46 -72 -50 -85 -4 -12 -17 -34 -30 -50 -12 -15 -30 -47 -41 -72
-10 -25 -25 -52 -32 -61 -7 -8 -13 -18 -13 -22 0 -13 -72 -157 -81 -162 -5 -4
-9 -19 -9 -34 0 -16 -6 -34 -14 -40 -8 -7 -18 -25 -21 -41 -4 -16 -15 -46 -25
-67 -9 -21 -21 -54 -25 -73 -4 -19 -13 -46 -20 -60 -18 -37 -36 -89 -46 -135
-21 -100 -39 -170 -48 -194 -11 -26 -27 -119 -38 -216 -3 -27 -9 -55 -15 -62
-5 -6 -12 -92 -15 -190 -4 -120 -10 -187 -19 -205 -18 -36 -18 -180 0 -216 9
-18 15 -88 19 -221 4 -106 11 -199 16 -205 5 -6 11 -36 14 -66 10 -101 29
-205 43 -232 8 -15 14 -44 14 -65 1 -21 7 -49 15 -63 8 -14 14 -39 15 -55 0
-17 4 -35 8 -40 5 -6 21 -48 36 -95 15 -47 36 -103 46 -125 9 -22 21 -56 25
-75 4 -19 19 -55 32 -79 14 -25 34 -70 45 -100 12 -31 29 -68 39 -83 11 -14
19 -33 19 -41 0 -8 6 -19 13 -26 8 -6 26 -37 42 -68 16 -32 40 -76 54 -98 14
-22 34 -56 46 -76 25 -44 83 -129 150 -218 28 -36 63 -86 80 -111 16 -25 70
-86 120 -137 49 -51 117 -121 150 -157 32 -36 62 -66 66 -66 5 0 44 -36 88
-80 44 -44 84 -80 88 -80 5 0 22 -12 39 -28 44 -42 118 -98 220 -167 32 -22
65 -46 72 -52 7 -7 20 -13 28 -13 8 0 14 -5 14 -10 0 -6 10 -15 23 -20 12 -6
36 -19 52 -30 17 -11 41 -25 55 -31 14 -5 39 -21 57 -35 17 -13 34 -24 37 -24
12 0 156 -72 161 -81 4 -5 19 -9 35 -9 16 0 31 -4 35 -9 11 -18 165 -86 255
-113 19 -5 39 -14 45 -19 5 -5 21 -9 36 -9 15 0 32 -7 39 -15 7 -9 29 -15 54
-15 23 0 47 -5 53 -11 17 -17 159 -51 303 -73 47 -6 94 -17 105 -23 11 -6 83
-14 160 -18 77 -4 145 -11 151 -16 16 -13 506 -4 685 12 80 8 152 19 160 25 8
6 47 14 88 17 41 3 79 11 85 17 5 5 29 10 52 10 24 0 45 4 48 9 3 5 27 12 53
16 27 4 55 13 63 20 8 7 33 15 55 18 36 4 66 13 130 38 11 4 31 11 45 14 25 6
81 27 135 50 17 6 41 17 55 23 69 29 127 54 140 62 8 5 67 34 130 66 63 31
129 68 147 81 17 12 35 23 39 23 10 0 108 63 112 72 2 4 24 17 48 27 24 11 47
27 50 35 3 9 12 16 18 16 14 0 60 35 132 103 28 26 55 47 60 47 6 0 30 20 54
45 24 25 49 45 55 45 13 0 305 292 305 306 0 5 20 30 45 54 25 24 45 49 45 55
0 6 20 31 45 55 25 24 45 48 45 52 0 4 14 21 30 38 17 17 30 37 30 44 0 8 7
17 16 20 8 3 24 26 35 51 11 25 24 45 28 45 4 0 16 19 27 43 10 23 24 46 31
50 7 4 13 13 13 18 0 6 11 25 23 42 13 18 50 84 81 147 32 63 61 122 66 130 8
14 43 92 60 135 4 11 22 54 38 95 17 41 34 86 37 100 3 14 10 34 14 45 25 64
34 94 38 130 3 22 12 47 20 56 7 9 16 34 19 55 3 22 9 48 14 59 10 23 17 59
33 175 7 47 17 94 23 105 6 11 14 78 18 149 4 71 11 137 17 147 12 22 12 536
0 543 -5 3 -12 70 -16 148 -4 79 -12 152 -18 163 -6 11 -17 58 -23 105 -21
137 -54 281 -71 302 -6 7 -14 34 -17 60 -4 26 -11 50 -17 53 -5 4 -9 17 -9 31
0 13 -4 32 -9 42 -25 46 -51 110 -51 125 0 20 -68 164 -81 172 -5 4 -9 19 -9
35 0 16 -4 31 -9 35 -5 3 -26 40 -46 83 -20 42 -40 79 -45 82 -4 3 -19 30 -34
60 -15 30 -36 69 -46 85 -11 17 -24 40 -30 53 -5 12 -14 22 -20 22 -5 0 -10 6
-10 14 0 8 -6 21 -12 28 -7 7 -31 40 -53 72 -69 102 -125 176 -167 220 -16 17
-28 34 -28 39 0 4 -36 44 -80 88 -44 44 -80 84 -80 89 0 5 -29 35 -65 67 -36
32 -101 93 -144 136 -43 42 -83 77 -88 77 -5 0 -23 13 -39 30 -16 16 -33 30
-38 30 -4 0 -23 12 -42 28 -99 81 -222 170 -276 199 -18 10 -51 30 -73 44 -22
13 -58 33 -80 44 -22 11 -41 23 -43 27 -4 8 -148 78 -161 78 -4 0 -46 20 -93
44 -47 24 -101 47 -119 51 -19 4 -52 16 -74 25 -22 10 -57 24 -78 30 -22 7
-51 18 -65 26 -15 8 -37 14 -49 14 -12 0 -25 5 -28 10 -3 6 -21 10 -38 10 -18
1 -43 7 -57 15 -14 8 -42 14 -63 15 -21 0 -50 6 -65 14 -27 14 -131 33 -232
43 -30 3 -60 9 -66 14 -5 4 -84 11 -175 15 -107 4 -174 11 -193 20 -40 19
-283 20 -311 0z m320 -216 c3 -6 52 -10 110 -10 57 0 106 -4 109 -9 3 -4 54
-11 113 -15 65 -4 113 -12 123 -20 8 -7 48 -16 89 -19 41 -3 79 -11 85 -17 5
-5 19 -10 31 -10 11 0 40 -6 65 -14 25 -8 79 -24 120 -37 41 -12 79 -26 85
-30 5 -5 21 -9 36 -9 15 0 30 -4 33 -9 3 -5 21 -12 40 -15 19 -4 39 -13 46
-21 7 -8 22 -15 34 -15 12 0 31 -7 42 -15 10 -8 26 -15 35 -15 17 0 208 -95
254 -125 17 -12 52 -32 78 -45 70 -36 89 -47 96 -57 9 -13 106 -73 117 -73 6
0 25 -14 43 -32 18 -17 54 -45 80 -62 64 -42 105 -75 219 -179 143 -131 141
-129 224 -220 99 -108 152 -172 246 -298 18 -24 40 -48 48 -52 8 -4 14 -16 14
-25 0 -9 14 -30 30 -46 17 -16 30 -34 30 -39 0 -5 13 -28 28 -51 15 -22 38
-62 51 -88 12 -27 26 -48 31 -48 4 0 22 -35 40 -77 19 -43 39 -85 45 -93 9
-13 42 -83 90 -195 7 -16 16 -42 19 -58 4 -15 18 -52 31 -82 14 -30 28 -68 32
-85 3 -17 10 -33 14 -36 5 -3 9 -17 9 -32 0 -24 13 -74 42 -157 6 -16 16 -59
22 -95 7 -36 15 -72 19 -80 6 -16 11 -51 28 -230 6 -63 17 -130 25 -148 20
-46 20 -461 0 -500 -8 -16 -16 -81 -21 -167 -4 -77 -11 -144 -15 -150 -4 -5
-10 -35 -13 -65 -6 -64 -34 -189 -46 -205 -5 -5 -11 -30 -15 -55 -7 -44 -21
-95 -37 -135 -4 -11 -14 -40 -20 -65 -7 -25 -16 -49 -21 -55 -4 -5 -8 -17 -8
-27 0 -9 -7 -34 -16 -55 -9 -21 -23 -51 -29 -68 -27 -64 -170 -352 -194 -390
-14 -22 -36 -62 -49 -89 -26 -53 -26 -52 -70 -106 -16 -19 -32 -44 -36 -55 -3
-12 -29 -48 -57 -80 -28 -33 -54 -68 -57 -77 -21 -52 -529 -562 -575 -577 -6
-2 -45 -30 -85 -62 -40 -33 -78 -59 -84 -59 -6 0 -26 -13 -45 -30 -18 -16 -39
-30 -44 -30 -6 0 -28 -14 -49 -30 -21 -17 -44 -30 -51 -30 -7 0 -20 -7 -29
-15 -25 -22 -390 -205 -410 -205 -9 0 -52 -17 -96 -38 -43 -22 -98 -42 -122
-46 -24 -3 -51 -10 -60 -15 -39 -19 -90 -34 -132 -39 -25 -2 -50 -8 -55 -13
-15 -12 -140 -40 -205 -46 -30 -3 -60 -9 -65 -13 -6 -5 -73 -12 -150 -16 -85
-4 -151 -12 -167 -20 -39 -20 -457 -20 -496 0 -16 8 -79 17 -155 21 -70 4
-130 11 -133 16 -3 5 -25 9 -49 9 -24 0 -47 5 -50 10 -3 6 -19 10 -34 10 -27
0 -74 12 -116 30 -11 5 -46 12 -77 15 -32 4 -60 11 -63 16 -4 5 -19 9 -35 9
-16 0 -31 4 -34 9 -3 4 -19 11 -36 14 -17 4 -55 18 -85 32 -30 13 -67 27 -82
31 -16 3 -41 12 -58 19 -109 47 -182 81 -195 90 -8 6 -49 26 -90 45 -41 19
-79 41 -83 48 -4 6 -13 12 -19 12 -6 0 -44 20 -85 45 -40 25 -77 45 -82 45 -4
0 -21 13 -37 30 -16 16 -34 30 -41 30 -7 0 -20 8 -30 18 -24 23 -90 72 -98 72
-14 0 -283 239 -362 321 -18 19 -37 39 -42 44 -64 67 -152 169 -176 203 -16
24 -45 62 -65 85 -20 23 -39 50 -43 59 -3 10 -11 18 -17 18 -5 0 -10 6 -10 14
0 8 -6 21 -13 28 -7 7 -28 38 -47 68 -19 30 -38 58 -43 61 -11 8 -25 32 -78
139 -23 47 -48 92 -55 100 -22 26 -94 170 -94 188 0 9 -7 26 -15 36 -8 11 -15
30 -15 42 0 12 -7 27 -15 34 -8 7 -17 27 -21 46 -3 19 -10 37 -15 40 -5 3 -9
18 -9 33 0 15 -4 31 -9 36 -4 6 -18 44 -30 85 -13 41 -29 95 -37 120 -8 25
-14 54 -14 65 0 12 -5 26 -10 31 -6 6 -14 44 -17 85 -3 41 -12 81 -19 89 -8
10 -16 58 -20 123 -4 59 -11 110 -15 113 -5 3 -9 52 -9 109 0 58 -4 107 -10
110 -13 8 -13 342 0 350 6 3 10 46 10 95 0 49 4 91 9 94 5 3 12 50 16 103 4
54 12 109 18 123 6 14 16 59 23 100 16 96 23 130 34 155 5 11 14 38 20 60 6
22 15 49 19 60 19 47 33 92 38 115 3 14 9 30 13 35 4 6 13 33 20 60 7 28 17
54 21 60 5 5 9 16 9 24 0 18 38 99 51 107 5 3 9 16 9 29 0 13 14 44 30 68 17
25 30 47 30 50 0 4 14 26 30 50 17 25 30 52 30 61 0 9 13 35 30 58 16 22 30
46 30 52 0 6 12 25 27 41 16 16 36 44 45 61 23 43 138 197 155 207 7 4 13 14
13 20 0 22 50 77 253 279 232 230 273 268 289 268 6 0 30 20 54 44 23 24 51
47 63 51 12 3 33 17 49 29 15 13 43 32 62 42 19 11 46 29 60 42 26 22 51 37
169 99 36 18 70 37 75 41 6 4 45 23 86 42 41 19 82 40 90 46 8 7 37 19 65 29
27 9 54 20 60 24 5 4 33 14 60 21 28 7 54 17 60 21 5 5 17 9 26 9 9 0 43 12
75 26 54 25 137 47 224 61 19 3 40 9 45 14 6 4 35 11 65 14 30 4 69 13 85 20
34 15 214 34 385 41 63 3 119 9 125 15 12 12 252 12 260 -1z"/>
<path d="M4247 7723 c-11 -11 -8 -342 3 -364 6 -11 21 -19 35 -19 33 0 45 27
45 103 0 94 14 99 81 31 67 -69 145 -127 159 -119 16 10 13 282 -4 330 -12 34
-19 40 -45 43 l-30 3 -3 -92 c-2 -66 -7 -94 -16 -97 -8 -2 -57 39 -110 92 -96
96 -103 102 -115 89z"/>
<path d="M5024 7693 c-6 -4 -15 -35 -19 -68 -4 -33 -13 -73 -20 -90 -7 -16
-17 -68 -24 -114 -12 -93 -6 -111 34 -111 19 0 29 12 49 55 28 62 48 75 75 51
22 -20 75 -21 91 -1 7 8 19 15 26 15 17 0 64 91 64 122 0 40 -34 82 -81 99
-96 35 -179 53 -195 42z m149 -106 c42 -20 46 -33 16 -71 -17 -22 -28 -27 -58
-24 -35 3 -36 4 -39 48 -3 33 1 47 14 57 10 7 21 12 24 10 3 -2 22 -11 43 -20z"/>
<path d="M3635 7600 c-63 -31 -82 -94 -46 -155 19 -33 54 -55 88 -55 12 0 25
-4 28 -10 3 -5 19 -10 35 -10 24 0 31 -5 36 -26 8 -30 -7 -44 -47 -44 -31 0
-77 -21 -84 -38 -3 -7 0 -23 6 -34 10 -18 17 -20 68 -15 60 7 124 35 147 64
16 22 18 96 3 125 -11 21 -125 78 -156 78 -32 0 -46 16 -39 43 5 23 12 26 59
29 46 3 52 6 55 27 2 13 -2 28 -10 32 -24 16 -102 9 -143 -11z"/>
<path d="M5468 7407 c-76 -78 -138 -149 -138 -158 0 -32 52 -38 98 -12 29 17
31 17 50 0 10 -9 28 -17 39 -17 27 0 73 -37 73 -60 0 -40 61 -54 84 -18 7 12
7 23 -2 40 -6 13 -13 77 -16 143 -5 152 -16 219 -36 221 -8 1 -77 -62 -152
-139z m102 -82 c0 -51 -13 -57 -49 -24 l-22 21 22 24 c35 37 49 31 49 -21z"/>
<path d="M3230 7411 c0 -27 6 -62 14 -78 8 -15 19 -39 25 -53 6 -14 15 -32 20
-40 5 -8 22 -42 37 -75 24 -50 34 -61 58 -63 27 -3 107 25 154 54 22 14 22 15
5 39 -21 28 -59 32 -89 10 -36 -28 -45 -18 -90 95 -10 25 -24 52 -31 61 -7 8
-13 27 -13 41 0 32 -29 58 -63 58 -26 0 -27 -3 -27 -49z"/>
<path d="M5907 7393 c-15 -14 -6 -41 18 -57 14 -9 25 -23 25 -30 0 -13 -21
-66 -39 -96 -5 -8 -17 -33 -27 -55 -11 -22 -27 -52 -37 -68 -10 -15 -17 -37
-15 -50 2 -18 9 -22 42 -22 l40 0 50 97 c66 127 87 151 121 138 33 -13 55 -3
55 24 0 48 -202 151 -233 119z"/>
<path d="M2919 7284 c-53 -17 -121 -71 -143 -116 -18 -35 -22 -123 -6 -133 6
-3 10 -16 10 -28 0 -27 87 -117 113 -117 10 0 31 -6 46 -14 42 -22 112 5 179
71 l52 52 0 81 c0 52 -5 91 -15 109 -27 54 -118 112 -169 110 -11 -1 -42 -7
-67 -15z m122 -113 c36 -36 39 -43 39 -97 0 -60 -18 -94 -49 -94 -9 0 -27 -7
-39 -16 -22 -15 -26 -15 -71 16 -90 62 -94 151 -9 207 51 34 84 30 129 -16z"/>
<path d="M6263 7173 c-4 -9 -31 -51 -60 -92 -133 -188 -127 -178 -109 -206 9
-14 23 -25 30 -25 17 0 76 51 76 65 0 11 17 35 63 90 15 18 27 35 27 38 0 3
14 26 30 50 35 52 36 58 12 80 -24 22 -61 22 -69 0z"/>
<path d="M6417 6952 c-34 -22 -65 -52 -77 -75 -26 -48 -27 -134 -1 -182 27
-52 97 -115 125 -115 14 0 28 -4 31 -10 8 -12 62 -13 69 -1 3 5 21 12 39 15
33 6 103 69 126 113 6 12 11 51 11 87 l0 65 -58 60 c-91 93 -170 106 -265 43z
m190 -74 c7 -6 13 -17 13 -25 0 -7 7 -16 15 -19 10 -4 15 -20 15 -49 0 -38 -6
-49 -46 -89 -51 -52 -67 -55 -123 -25 -43 22 -71 68 -71 116 0 31 46 88 85
104 24 10 94 2 112 -13z"/>
<path d="M2445 6933 c-38 -20 -85 -63 -85 -79 0 -6 -7 -14 -15 -18 -11 -4 -15
-22 -15 -74 0 -110 36 -165 134 -206 54 -22 104 -20 162 8 56 27 62 32 98 98
31 55 37 147 11 168 -8 7 -15 18 -15 25 0 7 -20 31 -45 54 -44 41 -45 41 -122
41 -51 -1 -88 -6 -108 -17z m180 -108 c38 -48 44 -106 16 -141 -23 -29 -78
-54 -121 -54 -17 0 -38 13 -63 40 -32 35 -37 47 -37 89 0 43 4 53 31 75 25 22
41 26 89 26 55 0 61 -2 85 -35z"/>
<path d="M6845 6584 c-33 -33 -35 -40 -35 -101 0 -35 5 -73 11 -84 8 -16 7
-26 -6 -45 -15 -24 -45 -33 -45 -14 0 11 -69 110 -77 110 -23 0 -43 -25 -43
-53 0 -25 11 -46 48 -87 l48 -54 60 3 c53 1 62 5 87 34 29 34 29 35 11 168 -4
35 -2 48 10 58 14 12 20 11 37 -4 11 -11 25 -30 32 -44 16 -34 61 -41 77 -12
19 36 -29 107 -96 143 -51 27 -80 23 -119 -18z"/>
<path d="M2065 6519 c-35 -33 -69 -74 -76 -90 -12 -29 -10 -32 42 -85 29 -30
58 -54 64 -54 6 0 29 -18 50 -40 36 -37 103 -80 125 -80 16 0 32 40 26 64 -3
13 -17 28 -31 34 -34 16 -32 50 5 105 30 44 41 117 22 142 -21 29 -91 65 -126
65 -33 0 -46 -8 -101 -61z m120 -45 c30 -20 32 -43 4 -78 -26 -33 -52 -33 -78
0 -23 29 -17 52 21 78 27 19 23 19 53 0z"/>
<path d="M2742 6237 c-22 -23 -22 -29 -22 -308 0 -357 -18 -327 195 -331 l150
-3 3 -964 c1 -637 -1 -968 -8 -975 -5 -5 -10 -33 -10 -60 -1 -28 -7 -62 -15
-76 -8 -14 -14 -34 -15 -46 0 -27 -61 -111 -97 -135 -22 -15 -47 -19 -120 -19
-50 0 -94 4 -97 9 -6 9 -96 41 -115 41 -17 0 -15 -644 2 -658 6 -6 41 -20 77
-32 61 -21 78 -22 288 -18 150 3 227 9 234 16 7 7 33 12 58 12 25 0 54 6 65
13 11 7 38 19 60 26 71 23 182 75 240 112 51 33 185 168 185 186 0 7 6 16 14
19 8 3 24 26 36 52 12 26 32 67 45 92 13 25 26 59 30 75 3 17 10 39 14 50 25
59 41 135 41 194 0 39 6 78 15 95 13 24 15 159 15 1012 l0 983 148 3 147 3 8
110 c16 239 19 368 8 389 -6 12 -12 50 -13 86 l-3 65 -771 3 -770 2 -22 -23z
m1432 -149 c22 -31 23 -230 2 -248 -8 -6 -16 -28 -18 -48 l-3 -37 -147 -3
-148 -3 -3 -1062 c-4 -1082 -9 -1240 -43 -1278 -8 -8 -14 -28 -14 -43 0 -16
-7 -44 -16 -64 -49 -109 -78 -162 -104 -187 -17 -16 -30 -35 -30 -42 0 -7 -11
-18 -25 -23 -14 -5 -30 -21 -35 -35 -5 -14 -16 -25 -24 -25 -7 0 -19 -7 -26
-15 -7 -8 -31 -24 -54 -35 -22 -11 -59 -31 -81 -44 -22 -14 -49 -25 -61 -26
-11 0 -25 -5 -30 -10 -6 -6 -35 -13 -65 -16 -30 -4 -65 -13 -79 -22 -20 -13
-62 -16 -223 -16 -187 -1 -199 0 -213 19 -12 16 -15 50 -12 172 2 83 6 154 10
158 3 4 46 9 95 11 185 9 304 114 344 303 5 24 15 51 21 59 10 12 13 248 13
1116 l0 1101 -155 5 -154 5 -10 35 c-15 56 -19 289 -5 306 10 12 110 14 645
14 l633 0 15 -22z"/>
<path d="M4812 6237 c-22 -23 -22 -29 -22 -308 0 -357 -16 -329 188 -329 130
0 142 -2 152 -20 12 -22 7 -1867 -5 -1960 -4 -30 -11 -59 -15 -65 -4 -5 -11
-27 -14 -49 -10 -55 -68 -156 -89 -156 -6 0 -18 -7 -28 -16 -13 -12 -38 -15
-98 -15 -67 0 -94 6 -153 30 -39 17 -75 28 -80 25 -4 -3 -8 -150 -8 -328 l0
-323 33 -17 c66 -34 147 -46 302 -45 82 0 182 4 220 10 39 5 88 12 110 15 22
3 49 9 60 14 11 5 54 21 95 35 41 14 79 30 84 35 6 6 17 10 25 10 9 0 34 14
55 30 22 17 45 30 52 30 18 0 74 49 74 65 0 7 15 22 34 33 38 23 100 103 135
177 14 28 27 52 31 55 13 9 37 64 45 100 4 19 11 41 15 50 19 38 29 93 36 185
4 57 13 109 20 120 12 16 14 189 14 997 l0 977 147 3 147 3 6 30 c3 17 3 163
0 325 l-5 295 -771 3 -770 2 -22 -23z m1418 -308 l0 -181 -102 2 c-57 1 -124
2 -150 1 l-48 -1 -4 -1042 c-3 -1064 -10 -1263 -42 -1299 -8 -8 -14 -21 -14
-28 0 -41 -52 -167 -92 -225 -16 -21 -28 -44 -28 -50 0 -15 -147 -146 -164
-146 -4 0 -25 -12 -49 -27 -74 -48 -106 -63 -134 -63 -16 -1 -39 -7 -53 -15
-14 -8 -39 -14 -55 -15 -17 0 -40 -7 -52 -15 -25 -17 -307 -33 -386 -21 -39 6
-50 12 -59 34 -14 36 -23 284 -11 306 8 14 27 18 97 21 58 2 95 8 111 19 13 9
34 16 45 16 12 0 44 21 72 48 52 48 91 119 139 252 l24 65 0 1090 0 1090 -154
3 c-93 1 -160 7 -168 13 -10 9 -13 51 -13 174 0 89 3 165 7 168 3 4 294 7 645
7 l638 0 0 -181z"/>
<path d="M6832 5036 c-18 -7 -42 -22 -54 -34 -18 -17 -19 -23 -8 -36 14 -18
46 -21 55 -6 3 6 19 10 35 10 62 0 51 -47 -30 -126 -38 -37 -60 -67 -60 -81 0
-22 3 -23 94 -23 70 0 97 4 106 15 16 19 7 31 -30 38 -34 7 -39 27 -13 52 25
26 53 82 53 108 0 29 -34 69 -73 85 -32 14 -31 14 -75 -2z"/>
<path d="M7093 5036 c-37 -21 -63 -48 -63 -67 0 -10 -4 -21 -10 -24 -5 -3 -10
-32 -10 -64 0 -56 2 -60 45 -100 60 -55 107 -57 159 -6 35 34 36 37 36 111 0
71 -2 77 -31 107 -34 33 -74 58 -93 56 -6 -1 -21 -7 -33 -13z m78 -87 c16 -16
19 -30 17 -72 -3 -49 -5 -52 -37 -61 -30 -8 -36 -7 -52 13 -36 44 -16 141 29
141 12 0 31 -9 43 -21z"/>
<path d="M7498 5034 c-35 -19 -78 -71 -78 -95 0 -40 -18 -17 -24 31 -4 31 -13
53 -22 57 -22 8 -73 -17 -91 -44 -15 -22 -14 -26 6 -53 16 -23 21 -43 21 -93
0 -49 4 -68 18 -80 41 -37 58 -19 64 67 4 54 24 57 38 5 18 -65 48 -89 113
-89 47 0 56 3 73 28 39 52 59 152 34 167 -5 3 -10 16 -10 29 0 23 -28 55 -67
75 -27 14 -41 13 -75 -5z m80 -140 c3 -66 1 -71 -21 -81 -35 -16 -67 12 -74
65 -8 58 16 94 60 90 l32 -3 3 -71z"/>
<path d="M1391 5011 c-18 -13 -25 -31 -28 -68 -5 -49 -5 -50 38 -84 24 -19 53
-39 64 -45 11 -6 20 -20 20 -30 0 -23 -57 -32 -91 -13 -33 17 -54 5 -54 -31 0
-38 27 -50 112 -50 55 0 63 3 94 34 45 45 45 78 1 120 -46 42 -79 66 -93 66
-18 0 -25 15 -18 34 4 12 20 16 55 16 51 0 76 21 63 54 -9 24 -131 22 -163 -3z"/>
<path d="M1622 5018 c-32 -32 2 -67 54 -54 42 11 25 66 -21 66 -12 0 -26 -5
-33 -12z"/>
<path d="M1626 4892 c-14 -16 -16 -35 -14 -108 l3 -89 30 0 c30 0 30 0 38 72
12 115 -14 172 -57 125z"/>
<path d="M1763 4890 c-32 -19 -33 -21 -33 -94 0 -89 5 -106 34 -106 37 0 50
17 56 71 6 58 27 82 58 63 12 -8 18 -29 22 -70 5 -58 6 -59 35 -59 l30 0 3 86
3 87 -44 21 c-55 27 -122 27 -164 1z"/>
<path d="M2069 4891 c-37 -21 -77 -89 -65 -113 35 -72 55 -85 134 -87 36 -1
42 2 42 19 0 11 -8 23 -17 26 -95 30 -106 86 -22 103 29 6 34 11 34 36 0 27
-3 30 -35 32 -19 2 -51 -6 -71 -16z"/>
<path d="M2266 4891 c-61 -41 -73 -110 -30 -167 25 -32 30 -34 84 -34 42 0 61
5 73 18 36 39 5 82 -33 47 -16 -15 -22 -15 -35 -5 -26 21 -17 30 31 30 25 0
54 4 64 10 29 15 3 75 -43 100 -46 25 -74 25 -111 1z"/>
<path d="M1701 3779 c-32 -26 -57 -75 -65 -129 -4 -24 -14 -52 -23 -62 -14
-16 -17 -16 -39 -1 -19 12 -24 24 -24 58 0 49 -17 68 -57 63 -25 -3 -28 -8
-31 -41 -2 -21 1 -44 6 -50 5 -7 15 -29 21 -49 14 -44 68 -88 108 -88 37 0 89
32 106 67 8 15 17 48 20 72 7 57 42 89 69 64 9 -8 18 -32 20 -52 3 -33 6 -36
36 -39 l32 -3 0 56 c0 31 -7 69 -15 85 -33 65 -116 90 -164 49z"/>
<path d="M7197 3733 c-4 -3 -7 -17 -7 -30 0 -13 -6 -37 -14 -52 -14 -25 -25
-137 -15 -143 33 -20 53 -28 72 -28 22 0 64 -11 112 -29 68 -26 94 -34 127
-38 33 -5 38 -2 54 29 10 18 21 53 26 78 5 25 11 57 14 71 7 31 -10 69 -31 69
-23 0 -45 -30 -51 -71 -7 -43 -29 -73 -45 -63 -6 3 -9 34 -7 68 3 60 3 61 -24
64 -28 3 -42 -15 -62 -80 -7 -23 -68 -24 -86 -3 -10 12 -10 27 0 75 10 48 10
63 0 75 -13 15 -51 20 -63 8z"/>
<path d="M1885 3420 c-3 -5 -19 -10 -34 -10 -16 0 -34 -7 -41 -15 -7 -8 -23
-15 -36 -15 -12 0 -29 -6 -36 -13 -7 -7 -38 -23 -68 -36 -97 -41 -97 -41 -38
-163 43 -89 55 -102 84 -91 13 5 15 16 11 54 -3 26 -11 56 -18 67 -7 11 -9 27
-6 36 10 26 44 -1 67 -51 19 -44 44 -55 68 -31 17 17 15 63 -3 78 -25 21 -18
58 15 75 46 24 57 19 84 -39 14 -30 31 -58 36 -61 28 -17 73 26 50 49 -5 5
-10 17 -10 26 0 8 -9 32 -20 53 -11 20 -20 46 -20 57 0 31 -69 56 -85 30z"/>
<path d="M7098 3354 c-48 -31 -88 -94 -88 -137 0 -18 -5 -38 -12 -45 -9 -9 -9
-15 0 -24 7 -7 12 -23 12 -36 0 -40 64 -110 113 -123 23 -6 50 -15 59 -20 39
-20 98 1 156 55 48 44 60 73 62 147 2 90 3 89 -25 89 -31 0 -64 -45 -46 -63
17 -17 14 -32 -15 -74 -34 -50 -39 -53 -110 -53 -65 0 -83 12 -113 72 -12 23
-11 33 2 66 9 22 30 53 47 70 25 25 31 39 28 64 -4 41 -22 44 -70 12z"/>
<path d="M2013 3064 c-29 -14 -53 -30 -53 -35 0 -5 -6 -9 -14 -9 -8 0 -21 -6
-28 -13 -7 -7 -36 -27 -64 -45 -28 -18 -59 -41 -68 -51 -17 -18 -17 -21 -1
-45 20 -30 33 -32 61 -11 25 19 83 19 90 0 3 -8 -8 -37 -25 -65 -36 -59 -39
-90 -10 -116 25 -22 45 -12 72 37 24 43 33 49 79 49 69 0 122 37 149 102 11
27 10 35 -4 60 -9 16 -17 34 -17 40 0 6 -12 27 -27 47 -16 20 -33 45 -39 56
-16 29 -42 28 -101 -1z m87 -121 c29 -37 23 -65 -18 -77 -30 -8 -36 -6 -63 20
-33 33 -31 60 5 74 36 15 54 11 76 -17z"/>
<path d="M6857 2933 c-19 -18 -2 -46 54 -88 79 -62 77 -78 -16 -88 -39 -4 -85
-14 -103 -23 -18 -9 -39 -13 -46 -11 -7 3 -19 1 -27 -4 -24 -15 1 -39 117
-117 60 -41 118 -82 130 -93 36 -34 74 -18 74 30 -1 19 -13 34 -43 56 -23 17
-50 33 -59 37 -10 4 -18 18 -18 32 0 22 5 25 58 29 31 3 91 12 132 19 70 13
75 15 78 41 2 15 -2 27 -8 27 -17 0 -127 73 -197 130 -31 25 -110 40 -126 23z"/>
<path d="M2267 2728 c-8 -19 -18 -45 -22 -58 -4 -13 -26 -58 -47 -100 -40 -75
-68 -149 -68 -183 0 -14 4 -16 18 -9 9 5 43 12 74 16 32 3 73 15 91 25 18 10
53 22 76 26 23 4 55 13 69 21 15 8 37 14 50 14 29 0 29 30 -1 58 -25 23 -52
29 -62 12 -3 -5 -17 -10 -31 -10 -14 0 -37 -6 -52 -14 -15 -7 -42 -17 -59 -21
-28 -6 -33 -4 -33 13 0 10 11 39 25 63 59 104 59 105 45 138 -7 17 -16 31 -20
31 -5 0 -15 3 -24 6 -10 4 -19 -5 -29 -28z"/>
<path d="M6506 2483 c-17 -17 17 -131 44 -148 6 -3 10 -17 10 -30 0 -14 14
-50 30 -80 17 -30 30 -66 30 -80 0 -22 23 -55 39 -55 21 0 51 49 51 83 0 30 8
45 45 82 36 35 53 45 79 45 31 0 66 24 66 46 0 10 -120 60 -225 93 -38 13 -79
27 -90 31 -32 14 -72 20 -79 13z m186 -140 c24 -21 22 -34 -6 -55 -24 -17 -24
-17 -44 22 -10 22 -17 42 -14 45 11 11 46 4 64 -12z"/>
<path d="M2557 2352 c-26 -26 -47 -51 -47 -56 0 -4 -29 -40 -65 -78 -42 -45
-65 -79 -65 -94 0 -29 33 -49 58 -35 21 13 110 105 180 187 52 62 62 90 40
112 -23 23 -54 12 -101 -36z"/>
<path d="M6246 2251 c-17 -18 -16 -21 9 -60 14 -23 35 -51 46 -62 12 -12 18
-27 15 -36 -5 -13 -22 -14 -119 -8 -153 10 -157 10 -157 -5 0 -14 38 -68 73
-103 15 -15 27 -31 27 -37 0 -5 14 -23 30 -40 17 -17 30 -34 30 -38 0 -11 64
-72 76 -72 11 0 44 36 44 49 0 5 -7 11 -15 15 -8 3 -15 13 -15 22 0 9 -16 37
-36 60 -19 24 -32 49 -29 54 8 12 134 2 152 -12 16 -12 136 -6 140 8 2 6 -8
22 -21 35 -14 13 -26 29 -26 34 0 6 -20 32 -45 58 -25 27 -45 51 -45 53 0 3
-15 27 -32 55 -36 55 -71 65 -102 30z"/>
<path d="M2780 2195 c-7 -8 -22 -15 -33 -15 -12 0 -41 -22 -68 -50 -41 -43
-49 -58 -54 -105 -12 -92 9 -137 95 -200 45 -33 54 -36 107 -33 47 2 58 7 61
21 6 33 -36 67 -83 67 -55 0 -88 42 -89 112 -1 42 3 51 39 88 65 67 123 48
211 -68 18 -24 64 -7 64 23 0 47 -39 115 -67 115 -6 0 -18 6 -25 14 -43 42
-134 60 -158 31z"/>
<path d="M5896 2021 c-4 -5 -27 -19 -54 -31 -26 -12 -54 -26 -62 -31 -8 -5
-25 -13 -37 -19 -18 -7 -23 -18 -23 -44 0 -19 4 -37 9 -40 4 -3 34 -57 65
-119 31 -63 68 -125 82 -138 l25 -23 47 27 c26 14 66 37 90 49 66 34 69 87 5
88 -12 0 -25 -5 -29 -11 -12 -20 -67 -38 -86 -28 -26 14 -3 45 50 69 46 20 52
38 24 63 -25 23 -47 21 -82 -5 -24 -18 -34 -20 -53 -11 -43 20 -43 93 -1 93 7
0 19 6 26 13 7 8 23 19 36 26 27 14 28 42 4 64 -21 19 -28 21 -36 8z"/>
<path d="M3163 1978 c-30 -48 -143 -287 -143 -304 0 -13 12 -30 28 -40 33 -23
100 -54 115 -54 6 0 19 -7 29 -17 17 -15 19 -15 38 2 28 26 25 53 -7 67 -48
21 -92 59 -86 74 7 19 26 18 75 -6 50 -24 64 -25 72 -4 12 30 6 53 -15 59 -12
4 -36 16 -54 26 -31 18 -32 21 -21 55 12 38 46 55 70 35 8 -7 36 -14 63 -18
40 -4 51 -2 56 11 11 29 -3 42 -91 84 -92 44 -116 50 -129 30z"/>
<path d="M5527 1841 c-20 -10 -49 -21 -64 -24 -37 -6 -96 -30 -105 -41 -7 -11
1 -38 16 -48 6 -4 25 -8 42 -8 41 0 60 -17 77 -70 9 -25 22 -58 31 -75 9 -16
16 -42 16 -56 0 -42 30 -72 64 -63 15 3 30 13 33 21 7 18 -8 80 -37 153 -49
123 -49 156 -2 162 32 4 40 29 17 52 -21 21 -42 20 -88 -3z"/>
<path d="M3747 1753 c-4 -3 -7 -13 -7 -21 0 -8 -7 -28 -15 -45 -8 -18 -19 -63
-24 -102 -6 -38 -14 -93 -19 -122 -10 -64 -1 -93 32 -93 29 0 53 34 58 81 4
49 37 47 61 -3 21 -46 39 -47 84 -8 18 17 40 30 48 30 20 0 20 -63 1 -93 -13
-19 -13 -24 2 -42 48 -58 84 -27 98 85 3 30 13 67 20 82 8 14 17 58 20 96 8
87 -4 98 -55 48 -20 -20 -42 -36 -47 -36 -6 0 -19 -9 -30 -21 -32 -36 -71 -59
-88 -53 -9 3 -23 23 -32 43 -64 143 -92 189 -107 174z"/>
<path d="M5191 1731 c-11 -7 -13 -26 -8 -88 8 -104 0 -112 -64 -67 -27 19 -51
34 -54 34 -3 0 -24 14 -47 30 -44 32 -98 41 -98 16 0 -8 5 -18 10 -21 6 -3 10
-24 10 -45 0 -21 4 -41 9 -44 4 -3 12 -34 15 -68 4 -35 12 -68 17 -74 5 -6 12
-28 17 -50 8 -37 9 -39 47 -39 36 0 40 3 43 28 2 16 -4 39 -12 52 -18 27 -22
90 -6 100 13 8 72 -19 94 -44 11 -11 23 -21 27 -21 4 0 28 -13 52 -30 66 -45
77 -41 77 25 0 30 -4 63 -9 73 -16 31 -30 86 -36 144 -4 31 -12 64 -19 72 -15
19 -48 28 -65 17z"/>
<path d="M4712 1658 c-16 -16 -16 -172 0 -201 7 -12 14 -56 17 -97 6 -73 7
-75 34 -78 46 -6 57 12 57 92 -1 43 -6 81 -15 96 -9 16 -14 54 -15 102 0 66
-3 79 -19 88 -26 13 -44 13 -59 -2z"/>
<path d="M4348 1581 c-21 -43 -38 -84 -38 -92 0 -7 -6 -20 -14 -28 -29 -34
-77 -137 -74 -161 4 -37 50 -40 82 -6 20 22 32 26 83 26 51 0 64 -4 88 -26 37
-34 79 -30 83 9 2 16 -4 39 -12 52 -9 13 -16 30 -16 37 0 7 -7 27 -16 43 -9
17 -24 50 -33 75 -37 95 -66 150 -81 150 -9 0 -30 -33 -52 -79z m72 -127 c17
-43 13 -54 -20 -54 -19 0 -30 5 -30 14 0 25 19 66 30 66 6 0 15 -12 20 -26z"/>
<path d="M3417 1543 c-4 -3 -7 -23 -7 -44 0 -29 4 -38 21 -42 34 -9 69 9 69
36 0 37 -60 74 -83 50z"/>
</g>
</svg>
